<?xml version="1.0" encoding="iso-8859-1"?>
<!-- Uploaded to: SVG Repo, www.svgrepo.com, Generator: SVG Repo Mixer Tools -->
<!DOCTYPE svg PUBLIC "-//W3C//DTD SVG 1.1//EN" "http://www.w3.org/Graphics/SVG/1.1/DTD/svg11.dtd">
<svg height="800px" width="800px" version="1.1" id="Capa_1" xmlns="http://www.w3.org/2000/svg" xmlns:xlink="http://www.w3.org/1999/xlink" 
	 viewBox="0 0 297.5 297.5" xml:space="preserve">
<g id="XMLID_39_">
	<g>
		<path style="fill:#CDD9DD;" d="M238.9,141.8c0,1.84-0.1,3.66-0.27,5.46H120.46c-0.17-1.8-0.26-3.62-0.26-5.46
			c0-32.73,26.62-59.35,59.35-59.35C212.27,82.45,238.9,109.07,238.9,141.8z"/>
		<path style="fill:#00C08D;" d="M194.49,45.09c46.88,7.22,82.9,47.84,82.9,96.71c0,53.95-43.89,97.84-97.84,97.84
			c-25.75,0-49.21-10.01-66.69-26.32h32.68c10.31,4.92,21.84,7.69,34.01,7.69c43.68,0,79.21-35.53,79.21-79.21
			s-35.53-79.22-79.21-79.22s-79.22,35.54-79.22,79.22c0,1.84,0.09,3.65,0.21,5.46H81.86c-0.1-1.81-0.16-3.63-0.16-5.46
			c0-48.87,36.02-89.49,82.91-96.71c-0.76,1.27-1.21,2.75-1.21,4.33c0,4.66,3.78,8.44,8.45,8.44h15.39c4.67,0,8.45-3.78,8.45-8.44
			C195.69,47.84,195.24,46.36,194.49,45.09z"/>
		<path style="fill:#BCE6EC;" d="M20.12,167.13h213.09c-5.26,11.09-13.86,20.29-24.49,26.32H20.12V167.13z"/>
		<path d="M179.55,24.09c64.9,0,117.7,52.8,117.7,117.71c0,64.9-52.8,117.7-117.7,117.7c-38.03,0-71.88-18.13-93.42-46.18H49.42
			v43.2h6.96c4.66,0,8.44,3.78,8.44,8.45c0,4.66-3.78,8.44-8.44,8.44h-30.8c-4.66,0-8.44-3.78-8.44-8.44c0-4.67,3.78-8.45,8.44-8.45
			h6.96v-43.2H10.19c-5.49,0-9.94-4.45-9.94-9.94v-46.19c0-5.48,4.45-9.93,9.94-9.93h51.79c-0.09-1.81-0.14-3.63-0.14-5.46
			C61.84,76.89,114.64,24.09,179.55,24.09z M277.39,141.8c0-48.87-36.02-89.49-82.9-96.71c0.75,1.27,1.2,2.75,1.2,4.33
			c0,4.66-3.78,8.44-8.45,8.44h-15.39c-4.67,0-8.45-3.78-8.45-8.44c0-1.58,0.45-3.06,1.21-4.33C117.72,52.31,81.7,92.93,81.7,141.8
			c0,1.83,0.06,3.65,0.16,5.46h18.68c-0.12-1.81-0.21-3.62-0.21-5.46c0-43.68,35.54-79.22,79.22-79.22s79.21,35.54,79.21,79.22
			s-35.53,79.21-79.21,79.21c-12.17,0-23.7-2.77-34.01-7.69h-32.68c17.48,16.31,40.94,26.32,66.69,26.32
			C233.5,239.64,277.39,195.75,277.39,141.8z M238.63,147.26c0.17-1.8,0.27-3.62,0.27-5.46c0-32.73-26.63-59.35-59.35-59.35
			c-32.73,0-59.35,26.62-59.35,59.35c0,1.84,0.09,3.66,0.26,5.46H238.63z M233.21,167.13H20.12v26.32h188.6
			C219.35,187.42,227.95,178.22,233.21,167.13z"/>
	</g>
	<g>
	</g>
</g>
</svg>